<?xml version="1.0" encoding="iso-8859-1"?>
<!-- Generator: Adobe Illustrator 19.0.0, SVG Export Plug-In . SVG Version: 6.00 Build 0)  -->
<svg version="1.1" id="Capa_1" xmlns="http://www.w3.org/2000/svg" xmlns:xlink="http://www.w3.org/1999/xlink" x="0px" y="0px"
	 viewBox="0 0 512.001 512.001" style="enable-background:new 0 0 512.001 512.001;" xml:space="preserve">
<g>
	<path style="fill:#F25353;" d="M160.011,112.411V43.696c0-26.746,29.733-42.767,52.071-28.059l25.448,16.758
		c11.212,7.383,25.743,7.382,36.954-0.001l25.437-16.752c22.338-14.711,52.072,1.311,52.072,28.058v68.711L160.011,112.411z"/>
	<path style="fill:#F25353;" d="M375.394,156.871H136.61c-11.829,0-21.418-9.589-21.418-21.418l0,0
		c0-11.829,9.589-21.418,21.418-21.418h238.783c11.829,0,21.418,9.589,21.418,21.418l0,0
		C396.811,147.281,387.222,156.871,375.394,156.871z"/>
</g>
<polygon style="fill:#FEC9BD;" points="168.01,156.871 167.945,236.023 256.003,310.016 343.93,236.023 343.995,156.871 "/>
<polygon style="fill:#657FC9;" points="168.01,156.871 167.945,226.024 240.262,226.024 255.839,210.447 271.415,226.024 
	343.93,226.024 343.995,156.871 "/>
<path style="fill:#8CCEEA;" d="M447.986,497.188v-90.274c0-45.289-32.029-84.255-76.462-93.02l0,0
	c-9.62-1.898-16.556-10.334-16.556-20.14v-67.73l-98.965,82.932l-98.965-82.932v67.73c0,9.806-6.935,18.242-16.556,20.14
	l-16.556,3.266c-34.812,6.867-59.907,37.397-59.907,72.88v107.149L447.986,497.188L447.986,497.188z"/>
<g>
	<path style="fill:#FEB756;" d="M364.345,420.008h-24.351v-35.997h24.351c9.94,0,17.998,8.058,17.998,17.998l0,0
		C382.344,411.95,374.286,420.008,364.345,420.008z"/>
	<path style="fill:#FEB756;" d="M364.345,456.005h-24.351v-35.997h24.351c9.94,0,17.998,8.058,17.998,17.998l0,0
		C382.344,447.947,374.286,456.005,364.345,456.005z"/>
</g>
<path d="M329.996,446.006h-2.297c-5.522,0-9.999,4.478-9.999,9.999s4.478,9.999,9.999,9.999h6.249v3.186
	c0,5.522,4.478,9.999,9.999,9.999s9.999-4.478,9.999-9.999v-3.186h5.25v3.186c0,5.522,4.478,9.999,9.999,9.999
	s9.999-4.478,9.999-9.999v-7.464c7.889-4.958,13.148-13.733,13.148-23.719c0-6.848-2.476-13.128-6.574-17.998
	c4.099-4.871,6.574-11.15,6.574-17.998c0-9.986-5.259-18.761-13.148-23.719v-7.607c0-5.522-4.478-9.999-9.999-9.999
	s-9.999,4.478-9.999,9.999v3.329h-5.25v-3.329c0-5.522-4.478-9.999-9.999-9.999s-9.999,4.478-9.999,9.999v3.329h-6.249
	c-5.522,0-9.999,4.478-9.999,9.999s4.478,9.999,9.999,9.999h2.297V446.006z M349.994,394.011h14.352
	c4.411,0,7.999,3.589,7.999,7.999s-3.589,7.999-7.999,7.999h-14.352V394.011z M372.344,438.007c0,4.411-3.589,7.999-7.999,7.999
	h-14.352v-15.999h14.352C368.756,430.008,372.344,433.596,372.344,438.007z"/>
<path d="M256.003,357.673c2.63,0,5.21-1.07,7.068-2.931c1.86-1.859,2.931-4.439,2.931-7.068c0-2.63-1.07-5.21-2.931-7.069
	c-1.859-1.86-4.439-2.93-7.068-2.93c-2.63,0-5.21,1.069-7.069,2.93c-1.86,1.861-2.93,4.44-2.93,7.069c0,2.63,1.069,5.21,2.93,7.068
	C250.793,356.603,253.373,357.673,256.003,357.673z"/>
<path d="M501.981,492.002h-43.996v-85.09c0-49.922-35.549-93.168-84.527-102.83c-4.92-0.971-8.49-5.315-8.49-10.33v-67.729
	c0-3.885-2.25-7.418-5.77-9.061c-1.658-0.773-3.455-1.044-5.204-0.872v-49.222h21.4c17.323,0,31.417-14.094,31.417-31.416
	c0-17.323-14.094-31.417-31.417-31.417h-13.401V43.699c0-16.3-8.566-30.645-22.915-38.378c-14.35-7.732-31.044-6.996-44.656,1.97
	l-25.437,16.753c-7.884,5.192-18.072,5.192-25.955,0.001L217.582,7.286c-13.61-8.964-30.305-9.699-44.654-1.968
	c-14.349,7.731-22.915,22.078-22.915,38.378v60.341H136.61c-17.323,0-31.417,14.094-31.417,31.417
	c0,17.322,14.094,31.416,31.417,31.416h21.4v49.221c-1.749-0.171-3.545,0.1-5.204,0.873c-3.521,1.643-5.77,5.177-5.77,9.061v67.729
	c0,5.016-3.571,9.359-8.491,10.33l-16.556,3.267c-39.386,7.769-67.971,42.545-67.971,82.69v101.963H10.022
	c-5.522,0-9.999,4.478-9.999,9.999s4.478,9.999,9.999,9.999h491.957c5.522,0,9.999-4.478,9.999-9.999
	S507.503,492.002,501.981,492.002z M170.01,92.029h75.098c5.522,0,9.999-4.478,9.999-9.999c0-5.522-4.478-9.999-9.999-9.999H170.01
	V43.696c0-8.822,4.637-16.588,12.403-20.772c7.764-4.187,16.803-3.789,24.17,1.064l25.448,16.759
	c14.565,9.591,33.388,9.592,47.953-0.001l25.437-16.753c7.368-4.854,16.402-5.252,24.171-1.066
	c7.767,4.186,12.403,11.95,12.403,20.772v60.338H170.009V92.029H170.01z M136.61,146.871c-6.296,0-11.419-5.122-11.419-11.418
	s5.123-11.419,11.419-11.419h238.784c6.296,0,11.419,5.123,11.419,11.419s-5.123,11.418-11.419,11.418H136.61z M249.965,166.87
	h70.469l-47.016,47.016l-10.509-10.509c-3.904-3.903-10.233-3.904-14.142,0l-12.648,12.648h-35.31L249.965,166.87z M249.391,166.87
	h0.348C249.441,167.077,249.22,167.181,249.391,166.87z M178.01,210.544V166.87h43.673L178.01,210.544z M240.261,236.023
	c2.652,0,5.195-1.054,7.07-2.929l8.507-8.507l8.506,8.507c1.876,1.875,4.419,2.929,7.07,2.929h56.051l-71.465,59.887l-71.465-59.887
	H240.261z M299.562,216.024l34.434-34.434v34.434H299.562z M437.987,492.002H266.002V387.8c0-5.522-4.478-9.999-9.999-9.999
	s-9.999,4.478-9.999,9.999v104.202H74.019V390.039c0-30.619,21.803-57.144,51.843-63.07l16.555-3.267
	c2.256-0.445,4.414-1.136,6.448-2.039l39.026,39.026c1.953,1.952,4.512,2.929,7.07,2.929c2.559,0,5.118-0.977,7.07-2.929
	c3.905-3.905,3.905-10.236,0-14.142L163.485,308c2.272-4.285,3.551-9.145,3.551-14.249v-46.303l82.545,69.172
	c3.656,3.083,9.187,3.053,12.845,0l82.545-69.172v46.305c0,4.454,0.975,8.723,2.733,12.587l-43.689,43.689
	c-3.905,3.905-3.905,10.236,0,14.142c1.953,1.952,4.512,2.929,7.07,2.929c2.559,0,5.118-0.977,7.07-2.929l43.316-43.316
	c2.512,1.304,5.233,2.279,8.117,2.848c39.633,7.819,68.398,42.814,68.398,83.211L437.987,492.002L437.987,492.002z"/>
<path d="M281.45,72.028c-2.641,0-5.221,1.069-7.069,2.93c-1.87,1.86-2.93,4.44-2.93,7.069c0,2.63,1.06,5.21,2.93,7.068
	c1.85,1.87,4.43,2.931,7.069,2.931c2.63,0,5.199-1.061,7.068-2.931c1.86-1.859,2.931-4.439,2.931-7.068
	c0-2.63-1.07-5.21-2.931-7.069C286.649,73.098,284.08,72.028,281.45,72.028z"/>
<g>
</g>
<g>
</g>
<g>
</g>
<g>
</g>
<g>
</g>
<g>
</g>
<g>
</g>
<g>
</g>
<g>
</g>
<g>
</g>
<g>
</g>
<g>
</g>
<g>
</g>
<g>
</g>
<g>
</g>
</svg>
