<?xml version="1.0" encoding="iso-8859-1"?>
<!-- Generator: Adobe Illustrator 19.0.0, SVG Export Plug-In . SVG Version: 6.00 Build 0)  -->
<svg version="1.1" id="Layer_1" xmlns="http://www.w3.org/2000/svg" xmlns:xlink="http://www.w3.org/1999/xlink" x="0px" y="0px"
	 viewBox="0 0 509 509" style="enable-background:new 0 0 509 509;" xml:space="preserve">
<circle style="fill:#6EB1E1;" cx="254.5" cy="254.5" r="254.5"/>
<path style="fill:#F0BA7A;" d="M265.3,127.2h-21.6c-0.9,0-1.8-0.4-2.4-1l-41.8-41.8c-0.6-0.6-1-1.5-1-2.4s0.4-1.8,1-2.4L233,46.1
	c0.6-0.6,1.5-1,2.4-1h38.1c0.9,0,1.8,0.4,2.4,1l33.6,33.5c0.6,0.6,1,1.5,1,2.4s-0.4,1.8-1,2.4l-41.8,41.8
	C267.1,126.8,266.2,127.2,265.3,127.2z M245.1,120.4h18.8L302.3,82l-30.1-30.1h-35.3L206.8,82L245.1,120.4z"/>
<polygon style="fill:#15141C;" points="131.5,374.1 131.5,395.6 141,397.9 141,428.9 373.8,428.9 373.8,397.9 383.3,395.6 
	383.3,374.1 "/>
<g>
	<polygon style="fill:#E0D8B8;" points="172.5,456.2 165.7,456.2 165.7,424.1 152.4,403.6 152.4,387.6 159.2,387.6 159.2,401.6 
		172.5,422.1 	"/>
	<polygon style="fill:#E0D8B8;" points="349.1,456.2 342.3,456.2 342.3,422.1 355.6,401.6 355.6,387.6 362.3,387.6 362.3,403.6 
		349.1,424.1 	"/>
</g>
<path style="fill:#CCC193;" d="M363.2,383H145.8c-16.6,0-30-13.4-30-30V153.7h277.4V353C393.2,369.6,379.8,383,363.2,383z"/>
<rect x="138.4" y="262" style="fill:#5A252B;" width="238.1" height="121"/>
<rect x="212.5" y="262" style="fill:#6B323B;" width="89.8" height="121"/>
<circle style="fill:#381117;" cx="257.4" cy="322.9" r="28.4"/>
<circle style="fill:#FCFCFD;" cx="257.4" cy="322.9" r="20.3"/>
<rect x="138.4" y="153.7" style="fill:#EFE8CA;" width="238.1" height="108.3"/>
<rect x="212.5" y="153.7" style="fill:#FFFAE2;" width="89.8" height="108.3"/>
<rect x="309.3" y="162.6" style="fill:#4B96BC;" width="55.5" height="90.4"/>
<rect x="221.4" y="162.6" style="fill:#6EB1E1;" width="72" height="90.4"/>
<rect x="150" y="162.6" style="fill:#4B96BC;" width="55.5" height="90.4"/>
<g>
	<rect x="128.9" y="153.7" style="fill:#393D47;" width="9.5" height="217.5"/>
	<rect x="376.4" y="153.7" style="fill:#393D47;" width="9.5" height="217.5"/>
</g>
<rect x="115.8" y="138.6" style="fill:#765661;" width="277.4" height="15.1"/>
<rect x="199.7" y="138.6" style="fill:#896B77;" width="109.7" height="15.1"/>
<path style="fill:#F9F2E5;" d="M393.2,138.6H115.8l27.4-11.9c35-15.3,72.9-23.2,111.1-23.2h0.4c38.2,0,76,7.9,111.1,23.2
	L393.2,138.6z"/>
<rect x="150" y="437.5" style="fill:#FCFCFD;" width="214.9" height="10.5"/>
<rect x="141" y="453.4" style="fill:#F1F3F7;" width="232.9" height="10.5"/>
<rect x="154.4" y="416.1" style="fill:#E0D8B8;" width="206.1" height="5.8"/>
<rect x="150" y="425.4" style="fill:#F1F3F7;" width="214.9" height="7"/>
<path style="fill:#646B79;" d="M289.2,45.1h-69.4c-2.7,0-4.8,2.1-4.8,4.8s2.1,4.8,4.8,4.8h69.4c2.7,0,4.8-2.1,4.8-4.8
	S291.8,45.1,289.2,45.1z"/>
<g>
</g>
<g>
</g>
<g>
</g>
<g>
</g>
<g>
</g>
<g>
</g>
<g>
</g>
<g>
</g>
<g>
</g>
<g>
</g>
<g>
</g>
<g>
</g>
<g>
</g>
<g>
</g>
<g>
</g>
</svg>
