<?xml version="1.0" encoding="UTF-8"?>
<svg version="1.0" xmlns="http://www.w3.org/2000/svg"
 width="1000.000000pt" height="584.000000pt" viewBox="0 0 1000.000000 584.000000"
 preserveAspectRatio="xMidYMid meet">
<g transform="translate(0.000000,584.000000) scale(0.100000,-0.100000)" fill="#ffffff" stroke="none">
<path d="M3110 4599 c-1070 -588 -1946 -1075 -1948 -1082 -4 -18 8 -27 200 -156 l166 -112 1719 931 c945 513 1736 942 1759 955 l40 24 1225 -674 1224 -673 3 -1041 2 -1041 -285 0 -285 0 0 -165 0 -165 285 0 285 0 0 -615 0 -615 220 0 220 0 0 323 c0 177 3 454 7 615 l6 292 244 0 243 0 0 165 0 165 -245 0 -245 0 0 910 c0 678 3 910 11 910 7 0 142 -67 302 -150 159 -82 291 -150 292 -150 9 0 350 264 350 271 0 5 -538 313 -1195 683 l-1195 674 -3 376 -2 376 -360 0 -360 0 0 -186 c0 -154 -2 -185 -14 -181 -7 3 -172 96 -365 206 -193 111 -352 201 -353 200 -2 0 -878 -482 -1948 -1070z"/>
<path d="M1850 1670 l0 -1510 235 0 235 0 0 695 0 695 58 45 c132 105 275 163 427 172 184 11 295 -53 358 -206 22 -56 22 -58 25 -728 l3 -673 239 0 240 0 0 628 c0 372 -4 662 -10 712 -49 397 -259 593 -661 617 -218 13 -443 -50 -629 -177 l-55 -37 3 639 4 638 -236 0 -236 0 0 -1510z"/>
<path d="M6250 1670 l0 -1510 235 0 235 0 0 1510 0 1510 -235 0 -235 0 0 -1510z"/>
<path d="M815 2110 c-364 -57 -606 -305 -582 -595 14 -166 81 -285 209 -375 93 -65 155 -95 369 -175 258 -97 319 -144 327 -255 8 -105 -35 -178 -130 -221 -74 -33 -245 -33 -367 0 -111 30 -236 80 -333 135 l-78 45 0 -193 0 -192 43 -25 c270 -154 713 -184 982 -64 236 104 363 328 328 582 -18 130 -45 187 -132 274 -91 90 -199 149 -421 229 -278 100 -360 164 -360 279 0 82 44 141 135 183 45 20 65 23 185 23 151 -1 245 -17 403 -70 l97 -32 -2 175 -3 175 -75 30 c-41 16 -115 38 -165 49 -105 22 -341 32 -430 18z"/> <path d="M4785 2104 c-439 -67 -742 -342 -826 -749 -23 -112 -25 -326 -4 -446 71 -408 347 -683 769 -764 114 -23 319 -30 464 -16 210 19 373 62 575 151 l97 43 0 173 c0 96 -2 174 -4 174 -2 0 -55 -24 -117 -54 -133 -64 -253 -105 -399 -137 -149 -34 -370 -34 -485 -1 -215 62 -366 199 -432 391 -12 36 -23 81 -23 99 l0 32 770 0 770 0 0 118 c-1 244 -32 407 -107 562 -40 80 -61 109 -137 185 -73 73 -109 100 -182 137 -203 105 -469 142 -729 102z m400 -363 c147 -52 234 -149 270 -303 8 -35 15 -73 15 -85 l0 -23 -530 0 c-461 0 -530 2 -530 15 0 34 53 152 95 210 72 102 185 172 322 200 98 21 280 13 358 -14z"/>
<path d="M9424 2111 c-97 -24 -220 -133 -309 -276 l-49 -78 -19 93 c-10 51 -28 123 -40 159 l-22 66 -201 3 -200 2 18 -87 c49 -242 51 -297 55 -1085 l4 -748 234 0 234 0 4 628 c3 676 3 666 58 777 32 65 109 131 172 150 75 22 236 18 415 -11 l42 -7 0 181 0 181 -53 16 c-143 41 -265 54 -343 36z"/> </g>
</svg>