<?xml version="1.0" encoding="UTF-8"?>
<svg version="1.0" xmlns="http://www.w3.org/2000/svg"
 width="791.000000pt" height="791.000000pt" viewBox="0 0 791.000000 791.000000"
 preserveAspectRatio="xMidYMid meet">
<g transform="translate(0.000000,791.000000) scale(0.100000,-0.100000)" fill="#002362" stroke="none">
<path d="M3730 7674 c-719 -52 -1364 -282 -1935 -689 -336 -240 -633 -536 -873 -873 -800 -1119 -914 -2601 -295 -3835 313 -625 818 -1168 1420 -1527 460 -275 946 -440 1493 -506 202 -25 638 -25 840 0 860 104 1613 468 2215 1071 895 894 1272 2159 1015 3400 -211 1012 -841 1897 -1734 2434 -454 272 -953 442 -1486 506 -129 15 -544 27 -660 19z m306 -1774 c23 -5 81 -32 129 -60 47 -27 88 -50 89 -50 2 0 21 17 43 39 58 55 95 61 367 61 282 0 321 -7 380 -66 57 -56 66 -102 66 -322 l0 -177 711 -400 c495 -279 723 -413 753 -441 74 -73 82 -196 19 -282 -14 -18 -84 -78 -156 -132 -152 -113 -207 -136 -287 -115 -25 7 -59 19 -77 28 -18 10 -34 17 -38 17 -3 0 -5 -354 -6 -787 0 -851 -6 -1060 -32 -1109 -21 -41 -80 -92 -115 -100 -15 -3 -43 -10 -62 -15 -19 -5 -89 -9 -155 -9 -202 0 -282 34 -333 140 -16 32 -17 131 -22 1154 l-5 1118 -670 369 -669 368 -41 -23 c-255 -147 -2107 -1141 -2144 -1151 -79 -21 -124 -4 -280 100 -81 55 -149 109 -168 133 -69 90 -64 220 11 294 29 28 398 236 1295 728 689 379 1265 691 1280 693 48 7 76 7 117 -3z"/> </g>
</svg>
